<?xml version="1.0" encoding="utf-8"?>
<svg xmlns="http://www.w3.org/2000/svg" viewBox="0 0 500 500">
  <path d="M 86.196 266.636 C 86.196 250.214 87.635 234.058 90.514 218.17 C 93.394 202.281 98.619 187.885 106.189 174.982 C 113.76 162.08 124.371 151.789 138.021 144.112 C 151.67 136.434 169.265 132.595 190.805 132.595 C 195.283 132.595 200.242 132.808 205.68 133.235 C 211.119 133.661 215.544 134.408 218.956 135.474 L 218.956 159.467 C 215.118 158.188 210.799 157.228 206 156.588 C 201.202 155.948 196.35 155.628 191.444 155.628 C 176.729 155.628 164.466 158.081 154.655 162.986 C 144.845 167.891 137.114 174.609 131.463 183.14 C 125.811 191.671 121.705 201.482 119.146 212.572 C 116.587 223.662 114.987 235.498 114.347 248.081 L 116.267 248.081 C 121.172 240.617 127.997 234.272 136.74 229.046 C 145.485 223.821 156.681 221.209 170.33 221.209 C 190.165 221.209 206.16 227.234 218.316 239.284 C 230.473 251.334 236.551 268.449 236.551 290.629 C 236.551 314.515 229.993 333.283 216.877 346.932 C 203.761 360.581 186.113 367.406 163.932 367.406 C 149.43 367.406 136.314 363.78 124.584 356.529 C 112.854 349.278 103.524 338.188 96.592 323.259 C 89.661 308.33 86.196 289.456 86.196 266.636 Z M 163.613 343.733 C 177.049 343.733 187.926 339.414 196.243 330.777 C 204.56 322.139 208.719 308.757 208.719 290.629 C 208.719 276.126 205.04 264.61 197.683 256.079 C 190.325 247.548 179.288 243.283 164.573 243.283 C 154.549 243.283 145.804 245.362 138.34 249.521 C 130.875 253.68 125.064 258.958 120.905 265.356 C 116.746 271.754 114.667 278.366 114.667 285.19 C 114.667 294.361 116.48 303.478 120.106 312.542 C 123.731 321.606 129.17 329.071 136.421 334.935 C 143.672 340.801 152.736 343.733 163.613 343.733 Z M 290 364.207 L 383.732 161.387 L 260.568 161.387 L 260.568 135.794 L 413.803 135.794 L 413.803 157.548 L 321.03 364.207 L 290 364.207 Z" style="text-wrap-mode: nowrap; fill-rule: nonzero; fill: rgb(255, 255, 255);" id="object-0"/>
  <g transform="matrix(0.024467, 0, 0, -0.024467, 5.250475, 494.642158)" fill="#000000" stroke="none" style="">
    <path d="M9745 19924 c-1191 -39 -2249 -250 -3315 -660 -318 -122 -512 -207 -830 -365 -566 -281 -1017 -557 -1505 -919 -395 -293 -694 -550 -1063 -914 -487 -481 -885 -957 -1264 -1516 -257 -378 -441 -696 -667 -1150 -158 -318 -243 -512 -365 -830 -203 -527 -346 -1017 -461 -1574 -91 -443 -158 -954 -186 -1421 -15 -243 -15 -903 0 -1150 37 -632 145 -1320 298 -1905 19 -74 41 -157 48 -185 7 -27 32 -113 55 -190 432 -1438 1169 -2734 2185 -3845 1067 -1167 2407 -2070 3875 -2612 189 -70 521 -179 675 -223 256 -72 302 -84 495 -129 1310 -305 2651 -346 3970 -120 261 44 659 131 870 189 265 73 367 104 580 175 1774 586 3346 1672 4555 3145 590 718 1098 1563 1462 2430 137 327 293 767 378 1070 72 256 84 303 129 495 353 1514 353 3046 0 4560 -45 193 -57 239 -129 495 -44 154 -153 486 -223 675 -651 1765 -1805 3315 -3332 4476 -693 527 -1552 1009 -2335 1310 -49 19 -101 39 -115 45 -119 52 -685 238 -860 283 -14 4 -92 24 -175 46 -605 157 -1309 268 -1910 300 -207 10 -693 19 -840 14z m607 -2084 c653 -33 1220 -125 1815 -296 168 -48 475 -148 577 -189 33 -13 102 -39 151 -59 471 -185 952 -434 1395 -724 170 -111 440 -303 460 -327 12 -15 -581 -611 -5483 -5512 -4901 -4902 -5497 -5495 -5512 -5483 -24 20 -216 290 -327 460 -597 913 -996 1938 -1172 3012 -86 523 -119 1055 -98 1559 30 708 113 1225 312 1936 39 139 153 470 225 653 342 863 791 1600 1409 2310 129 148 568 587 716 716 816 710 1703 1219 2710 1554 185 61 228 74 440 131 758 205 1609 297 2382 259z m5989 -3213 c810 -1119 1307 -2394 1458 -3737 39 -346 44 -453 45 -880 0 -499 -21 -803 -85 -1205 -304 -1918 -1251 -3592 -2739 -4841 -896 -751 -1998 -1307 -3150 -1588 -423 -103 -833 -168 -1305 -207 -197 -17 -953 -17 -1140 0 -488 43 -857 102 -1275 203 -1000 242 -1939 677 -2769 1282 -69 50 -130 94 -135 98 -7 5 2260 2278 5489 5508 3025 3025 5502 5500 5505 5500 3 0 48 -60 101 -133z" style="fill: rgb(255, 0, 0);"/>
  </g>
</svg>